<svg aria-hidden="true" style="position: absolute; width: 0; height: 0; overflow: hidden;" version="1.1" xmlns="http://www.w3.org/2000/svg" xmlns:xlink="http://www.w3.org/1999/xlink">
<defs>
<symbol id="icon-facebook" viewBox="0 0 32 32">
<path fill="#3b5998" style="fill: var(--color1, #3b5998)" d="M16 0c8.837 0 16 7.164 16 16 0 8.837-7.163 16-16 16s-16-7.163-16-16c0-8.836 7.163-16 16-16z"></path>
<path d="M17.948 11.015h2.062v-3.046h-2.424v0.011c-2.937 0.104-3.539 1.755-3.592 3.489h-0.006v1.521h-2v2.983h2v7.996h3.014v-7.996h2.469l0.477-2.983h-2.945v-0.919c0-0.586 0.39-1.056 0.945-1.056z"></path>
</symbol>
<symbol id="icon-google" viewBox="0 0 32 32">
<path fill="#dc4e41" style="fill: var(--color3, #dc4e41)" d="M32 16c0 8.837-7.163 16-16 16s-16-7.163-16-16c0-8.837 7.163-16 16-16s16 7.163 16 16z"></path>
<path fill="#dc4e41" style="fill: var(--color3, #dc4e41)" d="M5.571 16.716c-0.057 2.753 1.839 5.38 4.448 6.237 2.457 0.825 5.478 0.208 7.112-1.896 1.194-1.474 1.465-3.44 1.336-5.276-2.104-0.019-4.208-0.013-6.309-0.009-0.003 0.75 0 1.496 0.003 2.246 1.26 0.035 2.52 0.019 3.78 0.044-0.318 1.090-1.042 2.104-2.142 2.498-2.123 0.936-4.832-0.287-5.5-2.514-0.806-2.133 0.514-4.706 2.693-5.326 1.351-0.475 2.743 0.060 3.9 0.762 0.586-0.548 1.134-1.134 1.672-1.726-1.314-1.099-3.002-1.773-4.737-1.625-3.405 0.040-6.385 3.184-6.256 6.586z"></path>
<path fill="#dc4e41" style="fill: var(--color3, #dc4e41)" d="M22.561 13.881c-0.006 0.627-0.013 1.257-0.016 1.884-0.63 0.006-1.257 0.009-1.884 0.013 0 0.627 0 1.25 0 1.877 0.627 0.003 1.257 0.006 1.884 0.013 0.006 0.627 0.006 1.254 0.013 1.884 0.624 0 1.251-0.003 1.877 0 0.003-0.63 0.006-1.257 0.013-1.887 0.627-0.003 1.257-0.006 1.884-0.009 0-0.627 0-1.25 0-1.877-0.627-0.003-1.257-0.006-1.884-0.013-0.003-0.627-0.009-1.257-0.013-1.884-0.627-0-1.25-0-1.874-0z"></path>
<path d="M5.571 16.716c-0.129-3.402 2.85-6.545 6.256-6.586 1.736-0.148 3.424 0.526 4.737 1.625-0.539 0.592-1.087 1.178-1.672 1.726-1.156-0.703-2.548-1.238-3.9-0.762-2.18 0.621-3.5 3.194-2.693 5.326 0.668 2.227 3.377 3.449 5.5 2.514 1.099-0.394 1.824-1.408 2.142-2.498-1.26-0.025-2.52-0.009-3.78-0.044-0.003-0.75-0.006-1.496-0.003-2.246 2.101-0.003 4.205-0.009 6.309 0.009 0.129 1.836-0.142 3.802-1.336 5.276-1.635 2.104-4.655 2.722-7.112 1.896-2.608-0.857-4.504-3.484-4.447-6.236z"></path>
<path d="M22.561 13.881c0.624 0 1.247 0 1.874 0 0.003 0.627 0.009 1.257 0.013 1.884 0.627 0.006 1.257 0.009 1.884 0.013 0 0.627 0 1.25 0 1.877-0.627 0.003-1.257 0.006-1.884 0.009-0.006 0.63-0.009 1.257-0.013 1.887-0.627-0.003-1.254 0-1.877 0-0.006-0.63-0.006-1.257-0.013-1.884-0.627-0.007-1.257-0.009-1.884-0.013 0-0.627 0-1.25 0-1.877 0.627-0.003 1.254-0.006 1.884-0.013 0.003-0.626 0.009-1.256 0.016-1.883z"></path>
</symbol>
<symbol id="icon-linkedin" viewBox="0 0 32 32">
<path fill="#007ab9" style="fill: var(--color4, #007ab9)" d="M32 16c0 8.837-7.163 16-16 16s-16-7.163-16-16c0-8.837 7.163-16 16-16s16 7.163 16 16z"></path>
<path d="M25.56 17.287v6.596h-3.824v-6.154c0-1.545-0.552-2.601-1.937-2.601-1.057 0-1.684 0.71-1.962 1.398-0.101 0.246-0.127 0.587-0.127 0.932v6.424h-3.825c0 0 0.051-10.423 0-11.502h3.825v1.63c-0.008 0.013-0.019 0.025-0.025 0.038h0.025v-0.038c0.508-0.782 1.415-1.9 3.447-1.9 2.516 0 4.403 1.644 4.403 5.176v0zM9.884 6.836c-1.308 0-2.164 0.859-2.164 1.987 0 1.104 0.831 1.988 2.114 1.988h0.025c1.334 0 2.163-0.884 2.163-1.988-0.025-1.128-0.829-1.987-2.138-1.987v0zM7.948 23.884h3.823v-11.503h-3.823v11.503z"></path>
</symbol>
<symbol id="icon-twitter" viewBox="0 0 32 32">
<path fill="#26a6d1" style="fill: var(--color6, #26a6d1)" d="M16 0c8.837 0 16 7.164 16 16 0 8.837-7.163 16-16 16s-16-7.163-16-16c0-8.836 7.163-16 16-16z"></path>
<path d="M26.003 10.779c-0.699 0.302-1.451 0.505-2.24 0.597 0.806-0.469 1.424-1.21 1.715-2.095-0.754 0.435-1.588 0.75-2.477 0.919-0.711-0.735-1.724-1.194-2.846-1.194-2.152 0-3.898 1.693-3.898 3.783 0 0.297 0.034 0.586 0.101 0.863-3.24-0.158-6.114-1.665-8.036-3.954-0.336 0.559-0.528 1.208-0.528 1.902 0 1.312 0.688 2.472 1.734 3.149-0.64-0.020-1.24-0.189-1.767-0.474v0.048c0 1.834 1.344 3.363 3.128 3.711-0.327 0.086-0.671 0.133-1.027 0.133-0.251 0-0.495-0.023-0.733-0.068 0.496 1.504 1.936 2.598 3.643 2.628-1.335 1.016-3.016 1.62-4.843 1.62-0.315 0-0.625-0.018-0.931-0.053 1.727 1.074 3.775 1.701 5.978 1.701 7.172 0 11.094-5.768 11.094-10.768l-0.011-0.49c0.76-0.532 1.421-1.198 1.944-1.958z"></path>
</symbol>
</defs>
</svg>
