<svg xmlns="http://www.w3.org/2000/svg" width="79.536" height="79.536"><path d="M39.773 1.31L0 31.004v47.222h79.536V31.004L39.773 1.31zM28.77 22.499c1.167-2.133 2.775-3.739 4.815-4.805 2.035-1.075 4.357-1.616 6.983-1.616 2.214 0 4.191.435 5.921 1.292 1.729.87 3.045 2.094 3.967 3.687a10.451 10.451 0 0 1 1.367 5.217c0 2.247-.694 4.279-2.082 6.097-1.74 2.292-3.961 3.436-6.68 3.436-.732 0-1.279-.122-1.654-.38-.365-.262-.621-.632-.743-1.129-1.022 1.012-2.231 1.52-3.589 1.52-1.465 0-2.679-.507-3.643-1.509-.966-1.012-1.447-2.361-1.447-4.031 0-2.084.578-3.966 1.743-5.672 1.416-2.084 3.218-3.13 5.424-3.13 1.571 0 2.731.601 3.475 1.805l.331-1.468h3.5l-1.998 9.479c-.125.606-.187.986-.187 1.163 0 .228.052.38.149.497a.468.468 0 0 0 .357.165c.436 0 .979-.248 1.646-.769.901-.663 1.627-1.574 2.181-2.695.554-1.129.839-2.299.839-3.508 0-2.165-.782-3.977-2.352-5.445-1.573-1.45-3.77-2.185-6.578-2.185-2.393 0-4.417.487-6.077 1.468-1.66.966-2.913 2.343-3.765 4.114a12.7 12.7 0 0 0-1.258 5.52c0 1.856.479 3.552 1.411 5.074.945 1.533 2.26 2.641 3.956 3.345 1.696.697 3.643 1.046 5.828 1.046 2.097 0 3.909-.293 5.432-.881 1.522-.587 2.739-1.457 3.666-2.641h2.807c-.88 1.792-2.227 3.192-4.049 4.215-2.092 1.163-4.64 1.74-7.644 1.74-2.918 0-5.426-.487-7.542-1.468-2.121-.986-3.689-2.434-4.73-4.35-1.028-1.918-1.535-4.008-1.535-6.268.002-2.477.58-4.789 1.755-6.93zM2.804 31.941l29.344 19.68L2.804 74.333V31.941zm2.229 43.903l34.74-26.885 34.729 26.885H5.033zm71.696-1.511L47.391 51.621l29.339-19.68v42.392zM41.205 24.661c.466.531.699 1.295.699 2.292 0 .891-.174 1.856-.513 2.879-.334 1.036-.743 1.826-1.209 2.361-.318.375-.658.652-.992.826a2.8 2.8 0 0 1-1.41.37c-.674.006-1.23-.264-1.691-.794-.45-.531-.673-1.346-.673-2.465 0-.839.158-1.805.487-2.889.329-1.088.81-1.916 1.453-2.509.647-.588 1.346-.881 2.1-.881.706.005 1.293.274 1.749.81z" fill="#e2e2e2"/></svg>