<svg xmlns="http://www.w3.org/2000/svg" width="475.084" height="475.084"><path fill="lightgray" d="M464.524 412.846l-97.929-97.925c23.6-34.068 35.406-72.04 35.406-113.917 0-27.218-5.284-53.249-15.852-78.087-10.561-24.842-24.838-46.254-42.825-64.241-17.987-17.987-39.396-32.264-64.233-42.826C254.246 5.285 228.217.003 200.999.003c-27.216 0-53.247 5.282-78.085 15.847C98.072 26.412 76.66 40.689 58.673 58.676c-17.989 17.987-32.264 39.403-42.827 64.241C5.282 147.758 0 173.786 0 201.004c0 27.216 5.282 53.238 15.846 78.083 10.562 24.838 24.838 46.247 42.827 64.241 17.987 17.986 39.403 32.257 64.241 42.825 24.841 10.563 50.869 15.844 78.085 15.844 41.879 0 79.852-11.807 113.922-35.405l97.929 97.641c6.852 7.231 15.406 10.849 25.693 10.849 10.089 0 18.699-3.566 25.838-10.705 7.139-7.138 10.704-15.748 10.704-25.837s-3.518-18.651-10.561-25.694zM291.363 291.358c-25.029 25.033-55.148 37.549-90.364 37.549-35.21 0-65.329-12.519-90.36-37.549-25.031-25.029-37.546-55.144-37.546-90.36 0-35.21 12.518-65.334 37.546-90.36 25.026-25.032 55.15-37.546 90.36-37.546 35.212 0 65.331 12.519 90.364 37.546 25.033 25.026 37.548 55.15 37.548 90.36 0 35.216-12.519 65.331-37.548 90.36z"/><path fill="lightgray" d="M283.232 182.728h-63.954v-63.953c0-2.475-.905-4.615-2.712-6.424-1.809-1.809-3.951-2.712-6.423-2.712H191.87c-2.474 0-4.615.903-6.423 2.712-1.807 1.809-2.712 3.949-2.712 6.424v63.953h-63.954c-2.474 0-4.615.905-6.423 2.712-1.809 1.809-2.712 3.949-2.712 6.424v18.271c0 2.475.903 4.617 2.712 6.424 1.809 1.809 3.946 2.713 6.423 2.713h63.954v63.954c0 2.478.905 4.616 2.712 6.427 1.809 1.804 3.949 2.707 6.423 2.707h18.272c2.473 0 4.615-.903 6.423-2.707 1.807-1.811 2.712-3.949 2.712-6.427v-63.954h63.954c2.478 0 4.612-.905 6.427-2.713 1.804-1.807 2.703-3.949 2.703-6.424v-18.271c0-2.475-.899-4.615-2.703-6.424-1.807-1.807-3.949-2.712-6.426-2.712z"/></svg>